<svg width="46" height="46" viewBox="0 0 46 46" fill="none" xmlns="http://www.w3.org/2000/svg">
<circle cx="23" cy="23" r="23" fill="white"/>
<path d="M25.8033 25.196L28.9413 23.3844C29.2216 23.2226 29.3176 22.8643 29.1558 22.584C28.994 22.3038 28.6357 22.2077 28.3554 22.3696L25.2174 24.1812C24.9372 24.343 24.8411 24.7013 25.0029 24.9816C25.1391 25.2174 25.4811 25.3822 25.8033 25.196Z" fill="black"/>
<path d="M31.4458 17.7855L23.2929 13.0785C23.1116 12.9738 22.8883 12.9738 22.707 13.0785L14.5541 17.7855C14.3728 17.8902 14.2611 18.0836 14.2611 18.293V27.707C14.2611 27.9164 14.3728 28.1098 14.5541 28.2145L22.707 32.9215C22.7976 32.9738 22.8988 33 22.9999 33C23.1011 33 23.2023 32.9738 23.2929 32.9215L31.4458 28.2145C31.6271 28.1098 31.7388 27.9164 31.7388 27.707V18.293C31.7388 18.0836 31.6271 17.8902 31.4458 17.7855ZM27.2663 16.7255L20.2852 20.756L18.7395 19.8636L25.7206 15.8331L27.2663 16.7255ZM19.6993 21.7709V23.5506L18.1514 22.6569L18.1529 20.878L19.6993 21.7709ZM22.9999 14.2625L24.5486 15.1566L17.5676 19.1871L16.0189 18.293L22.9999 14.2625ZM22.414 31.3992L15.433 27.3687V19.3078L16.9815 20.2018L16.9793 22.9945C16.9792 23.2039 17.0908 23.3976 17.2723 23.5024L19.9923 25.073C20.2974 25.2491 20.5726 25.0763 20.5782 25.073C20.7595 24.9683 20.8712 24.7749 20.8712 24.5655V22.4475L22.414 23.3383V31.3992ZM22.9999 22.3234L21.457 21.4327L28.438 17.4022L29.9809 18.293L22.9999 22.3234ZM30.5669 27.3687L23.5859 31.3992V23.3383L30.5669 19.3078V27.3687Z" fill="black"/>
<path d="M28.3555 25.5075L25.2175 27.3191C24.9373 27.4809 24.8412 27.8393 25.003 28.1195C25.1407 28.3579 25.4833 28.5189 25.8034 28.334L28.9414 26.5225C29.2216 26.3606 29.3177 26.0023 29.1559 25.7221C28.9941 25.4418 28.6358 25.3458 28.3555 25.5075Z" fill="black"/>
</svg>
